<svg xmlns="http://www.w3.org/2000/svg" xmlns:xlink="http://www.w3.org/1999/xlink" viewBox="0 0 730.49 463.99"><defs><linearGradient id="Degradado_sin_nombre_25" x1="431.25" y1="1311.67" x2="510.29" y2="1232.63" gradientUnits="userSpaceOnUse"><stop offset="0" stop-opacity="0"/><stop offset="0.18" stop-opacity="0"/><stop offset="1"/></linearGradient></defs><g style="isolation:isolate"><g id="Calque_1" data-name="Calque 1"><path d="M501.84,1188.13" transform="translate(-128 -1004.31)" style="fill:#fcdba4;stroke:#000;stroke-miterlimit:10;stroke-width:21px"/><polygon points="117.6 369.43 0 301 56.07 273.98 117.6 369.43" style="fill:#e5e5e5"/><polygon points="348.49 344.26 117.05 368.71 116.95 131.64 348.39 107.18 348.49 344.26" style="fill:#e6ac3a"/><polygon points="348.39 107.18 116.95 131.64 30.45 66.46 261.89 42 348.39 107.18" style="fill:#e7b24e"/><polygon points="30.45 66.46 116.95 131.64 117.05 368.71 30.55 303.53 30.45 66.46" style="fill:#bb810d"/><path d="M156.84,1091.13" transform="translate(-128 -1004.31)" style="fill:#fcdba4;stroke:#000;stroke-miterlimit:10;stroke-width:21px"/><polygon points="293.6 66.3 62.16 90.75 85.22 108.05 316.57 83.6 293.6 66.3" style="fill:#f4dfb6"/><path d="M212.87,1111.66" transform="translate(-128 -1004.31)" style="fill:#feebc7"/><polygon points="61.81 90.88 61.81 131.24 84.87 148.53 84.87 108.17 61.81 90.88" style="fill:#f4dfb6"/><path d="M388,1272.38c0,.55,0,1.1,0,1.65,0,2.3-1,3-3.1,2.32-5.31-1.77-5.31-1.77-6.5,3.76-.53,2.46-1.54,2.94-3.55,1.66-1-.65-2-1.36-3-2s-2-.52-2.53.87c-.43,1.12-.81,2.25-1.23,3.36-1.08,2.88-2.06,3.14-4.06,1.12-.79-.81-1.6-1.61-2.38-2.42-1-1-1.87-.81-2.62.4s-1.37,2.34-2.1,3.48c-1.3,2-2.37,2-3.69.17-.6-.87-1.16-1.77-1.7-2.69-1-1.63-2-1.92-3.37-.2-.8,1-1.64,2-2.53,2.87-1.38,1.39-2.41,1.26-3.2-.46-.58-1.24-1-2.57-1.48-3.84s-1.41-1.69-2.68-.65c-1,.8-2,1.61-3,2.36-1.91,1.41-3,1.06-3.44-1.13-.27-1.27-.52-2.56-.71-3.85-.23-1.5-1.11-1.69-2.32-1.12s-2.23,1.21-3.37,1.76c-2.24,1.08-3.23.49-3.23-1.9,0-1.32.07-2.64.08-4s-.7-1.79-2-1.45c-1.43.38-2.85.88-4.29,1.2-1.71.38-2.52-.39-2.22-2.13.24-1.38.6-2.75.9-4.13.34-1.53-.26-2.2-1.79-2.06-1.31.13-2.62.29-3.93.35-2,.1-2.68-.83-2-2.72.49-1.33,1.19-2.59,1.72-3.91s.18-2.1-1.29-2.22-2.74-.27-4.09-.5c-1.82-.3-2.27-1.3-1.3-2.95a37.41,37.41,0,0,1,2.29-3.35c1.16-1.55.65-2.41-.93-2.89-1.23-.37-2.49-.67-3.68-1.14-1.73-.7-1.91-1.75-.6-3.18.91-1,1.86-2,2.86-2.89,1.31-1.19,1.2-2.12-.19-2.91-1.11-.62-2.26-1.18-3.34-1.86-1.67-1.05-1.69-2.17,0-3.44,1.14-.87,2.37-1.61,3.53-2.45s1.34-1.72.25-2.65q-1.37-1.16-2.7-2.34c-1.85-1.65-1.62-2.77.82-3.91,1.14-.54,2.32-1,3.47-1.54,1.31-.62,1.54-1.51.7-2.6s-1.58-2-2.3-3c-1.18-1.73-.75-2.78,1.35-3.39,1.2-.35,2.42-.69,3.64-.93,1.89-.37,2.09-1.41,1.4-2.86-.51-1.09-1.13-2.13-1.56-3.25-.71-1.82,0-2.84,1.94-3,1.23-.12,2.47-.16,3.7-.18,1.74,0,2.47-.77,2-2.51-.27-1-.5-2.07-.73-3.11-.55-2.54.22-3.4,2.74-3.07,1.06.14,2.12.29,3.16.49,1.69.35,2.53-.27,2.44-2.09-.06-1.23-.1-2.47-.09-3.71,0-2.11,1-2.86,3-2.23,1.15.37,2.23.9,3.36,1.32,1.41.52,2.38.23,2.61-1.56.17-1.32.42-2.64.71-3.95.44-2,1.48-2.49,3.18-1.52,1.1.62,2.14,1.35,3.19,2.06,1.25.84,2.14.5,2.7-1,.45-1.19.8-2.41,1.27-3.6.95-2.43,2-2.73,3.71-1.09a17.17,17.17,0,0,0,2.74,2.6,2.52,2.52,0,0,0,2.39-.4,37.68,37.68,0,0,0,2.42-3.87c1.11-1.64,2.18-1.7,3.3-.22.67.89,1.21,1.9,1.83,2.83,1.31,2,1.84,2,3.48.15.86-1,1.65-2,2.53-2.93,1.28-1.36,2.37-1.17,3.09.35.54,1.16.94,2.4,1.38,3.62.6,1.68,1.52,2.15,3.08.75a29,29,0,0,1,3.2-2.57c1.42-.93,2.55-.72,2.93,1.05.28,1.35.56,2.72.74,4.1.22,1.6,1.09,1.87,2.44,1.19s2.49-1.46,3.79-2c1.74-.77,2.67-.15,2.71,1.74,0,1.41-.06,2.83-.09,4.25s.69,1.95,2.05,1.55,2.85-.93,4.3-1.28,2.38.37,2.14,2-.62,3-.93,4.45.24,2.1,1.66,2,2.78-.33,4.17-.41c1.85-.11,2.55.79,1.93,2.62-.46,1.36-1.16,2.65-1.71,4s-.28,2.29,1.32,2.4c1.22.09,2.44.25,3.64.42,2.36.34,2.76,1.38,1.37,3.54-.66,1-1.34,2-2.05,3-1.06,1.48-.62,2.34.87,2.81,1.22.39,2.48.69,3.68,1.15,1.89.73,2.08,1.75.65,3.35-.91,1-1.89,2-2.86,3-1.27,1.26-1,2.21.34,3,1,.55,2,1.08,3,1.67,2.08,1.27,2.1,2.34.07,3.88-1,.77-2.1,1.47-3.15,2.21-1.28.91-1.41,1.86-.27,2.86.91.8,1.82,1.59,2.7,2.41,1.76,1.65,1.54,2.73-.78,3.85-1.14.55-2.32,1-3.47,1.53-1.4.65-1.72,1.56-.77,2.78.78,1,1.59,2,2.29,3.12,1.09,1.66.67,2.75-1.26,3.33q-1.92.57-3.87,1c-1.74.36-2,1.35-1.35,2.76.47,1,1,2,1.47,3.11.92,2.21.25,3.27-2.13,3.41-1,0-2,.07-3,.11-2.47.1-2.77.47-2.26,2.82.23,1.06.49,2.11.68,3.18.41,2.28-.38,3.09-2.68,2.78-.9-.13-1.81-.29-2.71-.44-2.82-.45-3-.26-3,2.74,0,.39,0,.78,0,1.17ZM323.61,1203l3.16-.23c13.51-1,27-2.13,40.54-2.86a20.58,20.58,0,0,1,9.26,1.72c9.33,4.17,10.17,14.46,2.05,21.66l-3,2.62a13.31,13.31,0,0,1,6.55,9.94c.39,2.47,2,3.24,4.19,3.3,3.66.1,5.86-2.33,5.89-6.47,0-1.57-.18-3,2.19-3,3,0,3-.2,3-3.24,0-.71,0-1.41,0-2.12a2.65,2.65,0,0,0-2.09-3,60.54,60.54,0,0,1-5.71-2.19c-1.89-.8-2.55-2.26-1.69-4.35,1.07-2.6,2.28-5.15,3.2-7.79a3.8,3.8,0,0,0-.2-2.92,37.19,37.19,0,0,0-26.38-17.17,4.44,4.44,0,0,0-3,1.11c-1.58,1.35-2.91,3-4.41,4.47-1.72,1.69-3.22,1.77-4.87.25-1.43-1.31-2.73-2.77-4.2-4a2.41,2.41,0,0,0-1.94-.55C337.45,1190.59,330.09,1195.36,323.61,1203Zm-2.13,53.77c1.95,3.85,2.71,4.21,6.42,3.22l3-.76c2.94-.79,4.19-.1,4.87,2.75a52.37,52.37,0,0,0,1.23,5.37,4,4,0,0,0,2,2.32c10.7,3.79,21.47,3.16,32.19-1.86a4,4,0,0,0,1.72-2.23c.61-2,.9-4.17,1.37-6.25.51-2.26,1.87-3.28,4.08-3,1.37.14,2.72.39,4.07.6,3.25.51,5-.65,6.18-4.18a1.33,1.33,0,0,0-.42-.12q-7.07.42-14.13.86c-5,.31-8-1.94-9.12-6.82-.53-2.32-1-4.68-1.47-7-.66-2.94-2-5.73-5.16-5.87-4.16-.19-8.4.45-12.61.73V1242l10.47-.69v13.24Zm-.79-40.55c.31.79.53,1.41.78,2,1.36,3.19.95,4.33-2.18,6-1.67.89-3.42,1.66-5,2.67a2.88,2.88,0,0,0-1.32,1.9c.27,4.51.69,9,1.15,13.48,0,.47.64,1.22,1,1.2,3.74-.15,7.48-.43,11.22-.68v-27Zm24.84,6.12c5.33-.37,10.46-.58,15.58-1.15,1.94-.21,3.83-1.3,3.8-3.83a3.42,3.42,0,0,0-3.72-3.52c-5.18.11-10.38.64-15.66,1Zm12.78-37.73a3.17,3.17,0,0,0-3.34-3.2,3.93,3.93,0,0,0-3.48,3.62,3.24,3.24,0,0,0,3.49,3.31A3.8,3.8,0,0,0,358.31,1184.6Zm-28.57,78.86a3.79,3.79,0,0,0-3.72,3.28,3.37,3.37,0,0,0,3.2,3.65,3.78,3.78,0,0,0,3.58-3.42A3.21,3.21,0,0,0,329.74,1263.46Zm54.07.18a3.33,3.33,0,0,0-3.43-3.21,4,4,0,0,0-3.4,3.69,3.25,3.25,0,0,0,3.57,3.27A3.73,3.73,0,0,0,383.81,1263.64ZM396,1217a3.78,3.78,0,0,0,3.41-3.63,3.24,3.24,0,0,0-3.37-3.22,3.66,3.66,0,0,0-3.47,3.78A3,3,0,0,0,396,1217Zm-78.77,2a3.18,3.18,0,0,0-3.32-3.23,3.75,3.75,0,0,0-3.38,3.63,3.05,3.05,0,0,0,3.31,3.18A3.62,3.62,0,0,0,317.23,1219.07Z" transform="translate(-128 -1004.31)" style="fill:#ac802a"/><g style="opacity:0.8"><path d="M262.71,1343.46l.92-.08a.38.38,0,0,1,.26.07.5.5,0,0,1,.15.2l5.45,12.79a6.71,6.71,0,0,1,.35,1.07,6,6,0,0,1,.33-1.13l5.43-13.74a.87.87,0,0,1,.16-.23.47.47,0,0,1,.27-.11l.9-.08-6.59,16.56-1,.09Z" transform="translate(-128 -1004.31)" style="fill:#4d4d4d"/><path d="M280.59,1357.06l3.67-.32v-13a7.88,7.88,0,0,1,0-.82l-3.53,3.44a.39.39,0,0,1-.27.13.32.32,0,0,1-.29-.11l-.33-.43,4.62-4.48.84-.07v15.22l3.49-.3v.82l-8.24.72Z" transform="translate(-128 -1004.31)" style="fill:#4d4d4d"/><path d="M291.39,1356.07a1.25,1.25,0,0,1,.08-.42,1,1,0,0,1,.22-.35,1,1,0,0,1,.33-.25.93.93,0,0,1,.41-.12.82.82,0,0,1,.41,0,1.09,1.09,0,0,1,.33.19.91.91,0,0,1,.22.32.87.87,0,0,1,.09.4.91.91,0,0,1-.09.41,1.15,1.15,0,0,1-.22.35,1.31,1.31,0,0,1-.33.25,1.21,1.21,0,0,1-.41.12,1,1,0,0,1-.74-.24A.91.91,0,0,1,291.39,1356.07Z" transform="translate(-128 -1004.31)" style="fill:#4d4d4d"/><path d="M306.94,1347.58a13.48,13.48,0,0,1-.45,3.68,8.45,8.45,0,0,1-1.23,2.65,5.79,5.79,0,0,1-1.82,1.65,5.53,5.53,0,0,1-2.24.69,4.84,4.84,0,0,1-2.22-.3,4.34,4.34,0,0,1-1.82-1.34,6.6,6.6,0,0,1-1.22-2.43,12.63,12.63,0,0,1-.45-3.6,13.4,13.4,0,0,1,.45-3.67,8.12,8.12,0,0,1,1.22-2.65,5.71,5.71,0,0,1,1.82-1.66,5.42,5.42,0,0,1,2.22-.68,5.06,5.06,0,0,1,2.24.29,4.43,4.43,0,0,1,1.82,1.34,6.76,6.76,0,0,1,1.23,2.43A12.63,12.63,0,0,1,306.94,1347.58Zm-1.13.1a12.43,12.43,0,0,0-.37-3.29,6.34,6.34,0,0,0-1-2.17,3.49,3.49,0,0,0-1.47-1.15,3.91,3.91,0,0,0-1.77-.25,4.22,4.22,0,0,0-1.76.56,4.56,4.56,0,0,0-1.47,1.41,7.67,7.67,0,0,0-1,2.34,13.21,13.21,0,0,0-.37,3.36,12.38,12.38,0,0,0,.37,3.29,6.38,6.38,0,0,0,1,2.16,3.47,3.47,0,0,0,1.47,1.15,3.75,3.75,0,0,0,1.76.24,4.35,4.35,0,0,0,1.77-.55,4.46,4.46,0,0,0,1.47-1.41,7.72,7.72,0,0,0,1-2.33A13.21,13.21,0,0,0,305.81,1347.68Z" transform="translate(-128 -1004.31)" style="fill:#4d4d4d"/><path d="M309,1354.53a1.13,1.13,0,0,1,.3-.76,1.19,1.19,0,0,1,.33-.26.93.93,0,0,1,.41-.12,1,1,0,0,1,.41,0,.79.79,0,0,1,.33.2.9.9,0,0,1,.23.31,1.06,1.06,0,0,1,.08.4,1.16,1.16,0,0,1-.08.42,1.32,1.32,0,0,1-.23.35,1.09,1.09,0,0,1-.74.36.92.92,0,0,1-.74-.23A.94.94,0,0,1,309,1354.53Z" transform="translate(-128 -1004.31)" style="fill:#4d4d4d"/><path d="M319,1338.36a5.27,5.27,0,0,1,1.74.11,3.88,3.88,0,0,1,1.47.67,3.4,3.4,0,0,1,1,1.26,4.26,4.26,0,0,1,.37,1.86,5.27,5.27,0,0,1-.27,1.7,8.18,8.18,0,0,1-.75,1.55,12.41,12.41,0,0,1-1.11,1.48c-.41.49-.85,1-1.31,1.49l-5,5.54a6.53,6.53,0,0,1,.76-.2,7,7,0,0,1,.78-.11l6.9-.61a.35.35,0,0,1,.29.09.33.33,0,0,1,.11.26v.63l-10.32.91v-.39a.68.68,0,0,1,.07-.26.91.91,0,0,1,.15-.23l5.45-6c.46-.5.87-1,1.26-1.44a13,13,0,0,0,1-1.39,7.77,7.77,0,0,0,.67-1.4,4.65,4.65,0,0,0,.24-1.49,3.48,3.48,0,0,0-.3-1.51,2.5,2.5,0,0,0-.78-1,3,3,0,0,0-1.13-.53,4.25,4.25,0,0,0-1.34-.08,4.18,4.18,0,0,0-1.39.35,4,4,0,0,0-1.13.74,4.24,4.24,0,0,0-.82,1.06,4.31,4.31,0,0,0-.44,1.28c-.08.27-.23.42-.45.44h-.12l-.54-.05a5.75,5.75,0,0,1,.56-1.87,5.1,5.1,0,0,1,2.56-2.43A5.71,5.71,0,0,1,319,1338.36Z" transform="translate(-128 -1004.31)" style="fill:#4d4d4d"/></g><polygon points="499.6 327.43 345.49 259 438.07 231.98 499.6 327.43" style="fill:#e5e5e5"/><polygon points="730.49 302.26 499.05 326.71 498.95 89.64 730.39 65.18 730.49 302.26" style="fill:#e6ac3a"/><polygon points="730.39 65.18 498.95 89.64 412.45 24.46 643.89 0 730.39 65.18" style="fill:#e7b24e"/><polygon points="412.45 24.46 498.95 89.64 499.05 326.71 412.55 261.53 412.45 24.46" style="fill:#bb810d"/><polygon points="676.6 24.3 445.16 48.76 468.22 66.05 699.57 41.6 676.6 24.3" style="fill:#f4dfb6"/><path d="M594.87,1069.66" transform="translate(-128 -1004.31)" style="fill:#feebc7"/><polygon points="444.81 48.88 444.81 89.23 467.87 106.53 467.87 66.17 444.81 48.88" style="fill:#f4dfb6"/><path d="M758,1233.38c0,.55,0,1.1,0,1.65,0,2.3-1,3-3.1,2.32-5.31-1.77-5.31-1.77-6.5,3.76-.53,2.46-1.54,2.94-3.55,1.66-1-.65-2-1.36-3-2s-2-.52-2.53.87c-.43,1.12-.81,2.25-1.23,3.36-1.08,2.88-2.06,3.14-4.06,1.12-.79-.81-1.6-1.61-2.38-2.42-1-1-1.87-.81-2.62.4s-1.37,2.34-2.1,3.48c-1.3,2-2.37,2-3.69.17-.6-.87-1.16-1.77-1.7-2.69-.95-1.63-2-1.92-3.37-.2-.8,1-1.64,2-2.53,2.87-1.38,1.39-2.41,1.26-3.2-.46-.58-1.24-1-2.57-1.48-3.84s-1.41-1.69-2.68-.65c-1,.8-2,1.61-3,2.36-1.91,1.41-3,1.06-3.44-1.13-.27-1.27-.52-2.56-.71-3.85-.23-1.5-1.11-1.69-2.32-1.12s-2.23,1.21-3.37,1.76c-2.24,1.08-3.23.49-3.23-1.9,0-1.32.07-2.64.08-4s-.7-1.79-1.95-1.45c-1.43.38-2.85.88-4.29,1.2-1.71.38-2.52-.39-2.22-2.13.24-1.38.6-2.75.9-4.13.34-1.53-.26-2.2-1.79-2.06-1.31.13-2.62.29-3.93.35-2,.1-2.68-.83-2-2.72.49-1.33,1.19-2.59,1.72-3.91s.18-2.1-1.29-2.22-2.74-.27-4.09-.5c-1.82-.3-2.27-1.3-1.3-2.95a37.41,37.41,0,0,1,2.29-3.35c1.16-1.55.65-2.41-.93-2.89-1.23-.37-2.49-.67-3.68-1.14-1.73-.7-1.91-1.75-.6-3.18.91-1,1.86-2,2.86-2.89,1.31-1.19,1.2-2.12-.19-2.91-1.11-.62-2.26-1.18-3.34-1.86-1.67-1.05-1.69-2.17,0-3.44,1.14-.87,2.37-1.61,3.53-2.45s1.34-1.72.25-2.65q-1.37-1.16-2.7-2.34c-1.85-1.65-1.62-2.77.82-3.91,1.14-.54,2.32-1,3.47-1.54,1.31-.62,1.54-1.51.7-2.6s-1.58-2-2.3-3c-1.18-1.73-.75-2.78,1.35-3.39,1.2-.35,2.42-.69,3.64-.93,1.89-.37,2.09-1.41,1.4-2.86-.51-1.09-1.13-2.13-1.56-3.25-.71-1.82,0-2.84,1.94-3,1.23-.12,2.47-.16,3.7-.18,1.74,0,2.47-.77,2-2.51-.27-1-.5-2.07-.73-3.11-.55-2.54.22-3.4,2.74-3.07,1.06.14,2.12.29,3.16.49,1.69.35,2.53-.27,2.44-2.09-.06-1.23-.1-2.47-.09-3.71,0-2.11,1-2.86,3-2.23,1.15.37,2.23.9,3.36,1.32,1.41.52,2.38.23,2.61-1.56.17-1.32.42-2.64.71-3.95.44-2,1.48-2.49,3.18-1.52,1.1.62,2.14,1.35,3.19,2.06,1.25.84,2.14.5,2.7-1,.45-1.19.8-2.41,1.27-3.6.95-2.43,2-2.73,3.71-1.09a17.17,17.17,0,0,0,2.74,2.6,2.52,2.52,0,0,0,2.39-.4,37.68,37.68,0,0,0,2.42-3.87c1.11-1.64,2.18-1.7,3.3-.22.67.89,1.21,1.9,1.83,2.83,1.31,2,1.84,2,3.48.15.86-1,1.65-2,2.53-2.93,1.28-1.36,2.37-1.17,3.09.35.54,1.16.94,2.4,1.38,3.62.6,1.68,1.52,2.15,3.08.75a29,29,0,0,1,3.2-2.57c1.42-.93,2.55-.72,2.93,1.05.28,1.35.56,2.72.74,4.1.22,1.6,1.09,1.87,2.44,1.19s2.49-1.46,3.79-2c1.74-.77,2.67-.15,2.71,1.74,0,1.41-.06,2.83-.09,4.25s.69,1.95,2.05,1.55,2.85-.93,4.3-1.28,2.38.37,2.14,2-.62,3-.93,4.45.24,2.1,1.66,2,2.78-.33,4.17-.41c1.85-.11,2.55.79,1.93,2.62-.46,1.36-1.16,2.65-1.71,4s-.28,2.29,1.32,2.4c1.22.09,2.44.25,3.64.42,2.36.34,2.76,1.38,1.37,3.54-.66,1-1.34,2-2.05,3-1.06,1.48-.62,2.34.87,2.81,1.22.39,2.48.69,3.68,1.15,1.89.73,2.08,1.75.65,3.35-.91,1-1.89,2-2.86,3-1.27,1.26-1,2.21.34,3,1,.55,2,1.08,2.95,1.67,2.08,1.27,2.1,2.34.07,3.88-1,.77-2.1,1.47-3.15,2.21-1.28.91-1.41,1.86-.27,2.86.91.8,1.82,1.59,2.7,2.41,1.76,1.65,1.54,2.73-.78,3.85-1.14.55-2.32,1-3.47,1.53-1.4.65-1.72,1.56-.77,2.78.78,1,1.59,2,2.29,3.12,1.09,1.66.67,2.75-1.26,3.33q-1.92.57-3.87,1c-1.74.36-2,1.35-1.35,2.76.47,1,1,2,1.47,3.11.92,2.21.25,3.27-2.13,3.41-1,0-2,.07-3,.11-2.47.1-2.77.47-2.26,2.82.23,1.06.49,2.11.68,3.18.41,2.28-.38,3.09-2.68,2.78-.9-.13-1.81-.29-2.71-.44-2.82-.45-3-.26-3,2.74,0,.39,0,.78,0,1.17ZM693.61,1164l3.16-.23c13.51-1,27-2.13,40.54-2.86a20.58,20.58,0,0,1,9.26,1.72c9.33,4.17,10.17,14.46,2,21.66l-3,2.62a13.31,13.31,0,0,1,6.55,9.94c.39,2.47,2,3.24,4.19,3.3,3.66.1,5.86-2.33,5.89-6.47,0-1.57-.18-3,2.19-3,3,0,3-.2,3-3.24,0-.71-.05-1.41,0-2.12a2.65,2.65,0,0,0-2.09-3,60.54,60.54,0,0,1-5.71-2.19c-1.89-.8-2.55-2.26-1.69-4.35,1.07-2.6,2.28-5.15,3.2-7.79a3.8,3.8,0,0,0-.2-2.92,37.19,37.19,0,0,0-26.38-17.17,4.44,4.44,0,0,0-3,1.11c-1.58,1.35-2.91,3-4.41,4.47-1.72,1.69-3.22,1.77-4.87.25-1.43-1.31-2.73-2.77-4.2-4a2.41,2.41,0,0,0-1.94-.55C707.45,1151.59,700.09,1156.36,693.61,1164Zm-2.13,53.77c1.95,3.85,2.71,4.21,6.42,3.22l3-.76c2.94-.79,4.19-.1,4.87,2.75a52.37,52.37,0,0,0,1.23,5.37,4,4,0,0,0,2,2.32c10.7,3.79,21.47,3.16,32.19-1.86a4,4,0,0,0,1.72-2.23c.61-2,.9-4.17,1.37-6.25.51-2.26,1.87-3.28,4.08-3,1.37.14,2.72.39,4.07.6,3.25.51,5-.65,6.18-4.18a1.33,1.33,0,0,0-.42-.12q-7.07.42-14.13.86c-5,.31-8-1.94-9.12-6.82-.53-2.32-1-4.68-1.47-7-.66-2.94-2-5.73-5.16-5.87-4.16-.19-8.4.45-12.61.73V1203l10.47-.69v13.24Zm-.79-40.55c.31.79.53,1.41.78,2,1.36,3.19.95,4.33-2.18,6-1.67.89-3.42,1.66-5,2.67a2.88,2.88,0,0,0-1.32,1.9c.27,4.51.69,9,1.15,13.48,0,.47.64,1.22,1,1.2,3.74-.15,7.48-.43,11.22-.68v-27Zm24.84,6.12c5.33-.37,10.46-.58,15.58-1.15,1.94-.21,3.83-1.3,3.8-3.83a3.42,3.42,0,0,0-3.72-3.52c-5.18.11-10.38.64-15.66,1Zm12.78-37.73a3.17,3.17,0,0,0-3.34-3.2,3.93,3.93,0,0,0-3.48,3.62,3.24,3.24,0,0,0,3.49,3.31A3.8,3.8,0,0,0,728.31,1145.6Zm-28.57,78.86a3.79,3.79,0,0,0-3.72,3.28,3.37,3.37,0,0,0,3.2,3.65,3.78,3.78,0,0,0,3.58-3.42A3.21,3.21,0,0,0,699.74,1224.46Zm54.07.18a3.33,3.33,0,0,0-3.43-3.21,4,4,0,0,0-3.4,3.69,3.25,3.25,0,0,0,3.57,3.27A3.73,3.73,0,0,0,753.81,1224.64ZM766,1178a3.78,3.78,0,0,0,3.41-3.63,3.24,3.24,0,0,0-3.37-3.22,3.66,3.66,0,0,0-3.47,3.78A3,3,0,0,0,766,1178Zm-78.77,2a3.18,3.18,0,0,0-3.32-3.23,3.75,3.75,0,0,0-3.38,3.63,3.05,3.05,0,0,0,3.31,3.18A3.62,3.62,0,0,0,687.23,1180.07Z" transform="translate(-128 -1004.31)" style="fill:#ac802a"/><g style="opacity:0.8"><polygon points="691.6 69.3 499.49 282.24 499.49 327.24 530.22 324.05 730.49 106.24 730.49 65.24 691.6 69.3" style="fill:#f4dfb6"/></g><path d="M662.78,1284.47a13.66,13.66,0,0,0,1.05-3.5,10.3,10.3,0,0,0,0-3.09,8.11,8.11,0,0,0-.93-2.65,9,9,0,0,0-1.76-2.19,11.63,11.63,0,0,0-3.94-2.44,8.43,8.43,0,0,0-4.36-.34,13.09,13.09,0,0,0-4.78,2,27,27,0,0,0-5.23,4.57l-9.59,10.48,30.37,27.78,10.49-11.46a20.82,20.82,0,0,0,3.63-5.32,13.84,13.84,0,0,0,1.31-5.17,10.66,10.66,0,0,0-.86-4.72,11.75,11.75,0,0,0-2.9-4Q669.92,1279.5,662.78,1284.47Zm-20,1.17,4.42-4.83c1.74-1.9,3.36-3,4.85-3.28s3,.31,4.61,1.75a5.14,5.14,0,0,1,2,4.55,10.3,10.3,0,0,1-2.94,5.33l-4.13,4.51Zm28.79,6.14a5.14,5.14,0,0,1,.62,2.27,6.16,6.16,0,0,1-.55,2.63,10.73,10.73,0,0,1-2,3l-5.24,5.73-8.91-8.15,5.23-5.71a12.93,12.93,0,0,1,2.62-2.27,6.22,6.22,0,0,1,2.42-.94,4.51,4.51,0,0,1,2.25.24,6.44,6.44,0,0,1,2.06,1.31A7.48,7.48,0,0,1,671.56,1291.78Z" transform="translate(-128 -1004.31)" style="fill:#e23b26"/><path d="M688.89,1261.41a14.77,14.77,0,0,0,1.26-4.07,12.06,12.06,0,0,0,0-3.89,11.28,11.28,0,0,0-1.29-3.57,13.12,13.12,0,0,0-6.62-5.68,9.53,9.53,0,0,0-4.67-.44,13.72,13.72,0,0,0-5.12,2,26.34,26.34,0,0,0-5.51,4.73l-8.47,9.26,30.36,27.78,5.17-5.64L682.11,1271l2.21-2.41a3.63,3.63,0,0,1,1.39-1.06,3.06,3.06,0,0,1,1.5-.08l15.56,2.51a3.46,3.46,0,0,0,1.64-.1,3.32,3.32,0,0,0,1.43-1l4.65-5.08-18.16-2.66A7.7,7.7,0,0,0,688.89,1261.41Zm-5.46-.77a11.94,11.94,0,0,1-2.15,3.15l-3.23,3.52L668,1258.09l3.3-3.61q2.87-3.13,5.49-3.52a5.85,5.85,0,0,1,5,1.73,7.59,7.59,0,0,1,1.77,2.32,6,6,0,0,1,.62,2.67A7.28,7.28,0,0,1,683.43,1260.64Z" transform="translate(-128 -1004.31)" style="fill:#e23b26"/><polygon points="585.8 255.9 603.32 236.75 598.81 232.62 586.49 246.08 577.9 238.22 587.61 227.62 583.26 223.64 573.56 234.24 565.14 226.54 577.45 213.08 572.96 208.97 555.44 228.12 585.8 255.9" style="fill:#e23b26"/><path d="M713.65,1199.4l19.45,39.7,4-4.38a2.59,2.59,0,0,0,.71-1.58,2.75,2.75,0,0,0-.28-1.47l-4.12-7.93,11.51-12.58,8.27,3.4a2.75,2.75,0,0,0,1.53.16,2.66,2.66,0,0,0,1.48-.88l4-4.36-41.27-15.86Zm17.12,19.24-6.68-12.9c-.3-.6-.67-1.28-1.11-2s-.93-1.56-1.47-2.4c.9.45,1.74.86,2.54,1.21s1.49.65,2.09.9l13.48,5.54Z" transform="translate(-128 -1004.31)" style="fill:#e23b26"/><path d="M760.81,1177.92a5.41,5.41,0,0,0-1.85.59,5.56,5.56,0,0,0,.21-1.54,12.58,12.58,0,0,0-.14-1.83l-3.26-21.77-4.46,4.87a4.71,4.71,0,0,0-1.07,1.7,4.07,4.07,0,0,0-.08,2L753.1,1180a3.1,3.1,0,0,1-.12,1.55,4.9,4.9,0,0,1-1,1.52l-1.21,1.32L738,1172.71l-5.17,5.65,30.39,27.8,5.16-5.65-13.35-12.22,1.63-1.78a4.88,4.88,0,0,1,1.61-1.27A3.51,3.51,0,0,1,760,1185l19.07,1.67a3.14,3.14,0,0,0,1.59-.07,4.19,4.19,0,0,0,1.66-1.24l4.57-5L763,1177.91A8.7,8.7,0,0,0,760.81,1177.92Z" transform="translate(-128 -1004.31)" style="fill:#e23b26"/><rect x="774.1" y="1139.04" width="7.68" height="41.15" transform="translate(-730.74 -53.52) rotate(-47.54)" style="fill:#e23b26"/><path d="M808.94,1132.32c.4.37.85.76,1.34,1.17s1,.8,1.54,1.2l-34.88-2.64a6.54,6.54,0,0,0-.86,0,2.42,2.42,0,0,0-.63.14,2.3,2.3,0,0,0-.54.34c-.17.15-.37.35-.61.6l-2.7,3L802,1163.85l4.55-5-18.64-17.06c-.37-.33-.78-.69-1.24-1.07s-.93-.76-1.42-1.13l34.74,2.63a3.24,3.24,0,0,0,1.55-.17,3.41,3.41,0,0,0,1.23-.92l2.67-2.92L795,1110.45l-4.55,5Z" transform="translate(-128 -1004.31)" style="fill:#e23b26"/><path d="M829.5,1103.18l3.19,2.92a1.38,1.38,0,0,0,1,.37,1.67,1.67,0,0,0,1.09-.58l3.47-3.8,5.53,5.05a18.13,18.13,0,0,1-4.21,7.22,14.17,14.17,0,0,1-4.4,3.3,11.85,11.85,0,0,1-5,1.18,13.14,13.14,0,0,1-5.34-1.1,18.79,18.79,0,0,1-5.35-3.54,17.8,17.8,0,0,1-3.77-4.73,13.29,13.29,0,0,1-1.58-5.06,11.68,11.68,0,0,1,.68-5.08,14.07,14.07,0,0,1,3-4.75,19.13,19.13,0,0,1,2.42-2.28,17.81,17.81,0,0,1,2.24-1.47,13.25,13.25,0,0,1,2.11-.92c.69-.22,1.38-.44,2.06-.64a2.63,2.63,0,0,0,1.27-.72,2,2,0,0,0,.4-2l-1.06-4a20.33,20.33,0,0,0-7.09,2,23.2,23.2,0,0,0-7,5.43,24.52,24.52,0,0,0-4.86,7.59,18.76,18.76,0,0,0,.67,15.54,23.45,23.45,0,0,0,5.26,6.86,22.64,22.64,0,0,0,7.28,4.56,19.89,19.89,0,0,0,7.83,1.31A19.58,19.58,0,0,0,837,1124a21.64,21.64,0,0,0,6.75-5,40.07,40.07,0,0,0,3-3.67,27,27,0,0,0,2.18-3.58,20.85,20.85,0,0,0,1.42-3.6,22.1,22.1,0,0,0,.74-3.74l-12.28-11.24Z" transform="translate(-128 -1004.31)" style="fill:#e23b26"/><path d="M245,1210.3v163l197,95s185-48,198.77-62.8c6.14-7.11,7.87-16,6.29-25.56a32.6,32.6,0,0,0-.56-5.52l-56.38-298.13a32.77,32.77,0,0,0-38.16-26l-28.43,5.38a23.46,23.46,0,0,0-24.32-10.83L469,1050.53A19.1,19.1,0,1,0,438.9,1027c-.29.32-.56.65-.83,1s-.56.66-.82,1-.56.65-.83,1-.56.66-.83,1-.56.65-.82,1-.56.66-.83,1-.56.65-.82,1-.57.65-.83,1-.56.66-.83,1-.56.65-.82,1-.57.66-.83,1-.56.65-.83,1-.56.66-.82,1-.57.65-.83,1-.56.66-.83,1-.56.65-.82,1-.56.66-.83,1-.56.65-.83,1-.56.65-.82,1-.56.66-.83,1-.56.65-.82,1-.57.66-.83,1-.56.65-.83,1-.56.66-.82,1-.57.65-.83,1-.56.66-.83,1-.56.65-.82,1-.56.66-.83,1-.56.65-.83,1-.56.65-.82,1-.56.66-.83,1-.56.65-.82,1-.57.66-.83,1-.56.65-.83,1-.56.66-.82,1c-.15.16-.3.31-.44.47a23.42,23.42,0,0,0-9.39,7.15c-.29.33-.56.66-.83,1s-.56.65-.83,1-.56.66-.82,1-.56.65-.83,1-.56.66-.83,1-.56.65-.82,1-.56.66-.83,1-.56.66-.83,1-.56.66-.82,1-.56.66-.83,1-.56.65-.83,1c-.11.13-.23.25-.33.38l-.9.17-22.8,4.31a32.32,32.32,0,0,0-5.23,1.46h0c-8,1.52-15.15,5.27-19.95,11.29Z" transform="translate(-128 -1004.31)" style="mix-blend-mode:multiply;opacity:0.1;fill:url(#Degradado_sin_nombre_25)"/><path d="M617.75,1410.41,430.14,1445.9a33.25,33.25,0,0,1-38.72-26.4l-57.2-302.45c-5.92-25.73,7.37-39.91,25.28-43.29l188.74-30.91a33.22,33.22,0,0,1,38.71,26.4l61.8,301C652.14,1388.16,644.19,1404.27,617.75,1410.41Z" transform="translate(-128 -1004.31)" style="fill:#2c445d"/><path d="M622,1404.36l-187.61,35.48a33.24,33.24,0,0,1-38.72-26.4L338.42,1111a33.23,33.23,0,0,1,26.4-38.71l187.62-35.49a33.23,33.23,0,0,1,38.71,26.4l57.21,302.45A33.25,33.25,0,0,1,622,1404.36Z" transform="translate(-128 -1004.31)" style="fill:#3e607f"/><path d="M537.84,1085.91a15.32,15.32,0,0,0,7.62-6.83,15.54,15.54,0,0,0,1.18-2.71,15.42,15.42,0,0,0,.47-7.53h0c-.09-.47-.21-.93-.34-1.37-.06-.24-.14-.46-.22-.69l-.2-.57c-.12-.3-.24-.59-.38-.88a1.15,1.15,0,0,0-.12-.25,15.4,15.4,0,0,0-16.7-8.49l-6.06,1.15-1.82-9.6c-.1-.53-.22-1.05-.35-1.56,0-.12-.07-.24-.1-.37-.14-.49-.29-1-.46-1.47v0c-.18-.51-.38-1-.6-1.51l-.09-.21h0L388,1067.9h0a1.77,1.77,0,0,0,0,.23c0,.54,0,1.08,0,1.63v0c0,.51.06,1,.11,1.53,0,.13,0,.25,0,.38.07.53.14,1,.24,1.58l1.82,9.6L384.1,1084a15.43,15.43,0,0,0-12.46,14,2.46,2.46,0,0,1,0,.28c0,.32,0,.64,0,1s0,.41,0,.61,0,.47,0,.71a13.08,13.08,0,0,0,.19,1.4h0a15.23,15.23,0,0,0,3.19,6.84,15.32,15.32,0,0,0,14.77,5.41l145.05-27.43A15.55,15.55,0,0,0,537.84,1085.91Z" transform="translate(-128 -1004.31)" style="fill:#325170"/><path d="M632.17,1380.08l-34.7-149.51-.09-.46L577.05,1074a1,1,0,0,0-.4-.69,1.06,1.06,0,0,0-.77-.21l-8,1-.89-4.72a1,1,0,0,0-1.22-.83l-5.65,1.06-.49-2.12a1.05,1.05,0,0,0-1.26-.78l-75.18,17.45-16.44,3.11-100,13a1,1,0,0,0-.9,1.17l.62,4.77-7.92,1.49a1.06,1.06,0,0,0-.67.44,1.07,1.07,0,0,0-.16.78l.79,4.15-5.56,1.29a1,1,0,0,0-.65.46,1,1,0,0,0-.13.79l35.38,152.42,19.74,151.54a1,1,0,0,0,1.16.9l8-1,.89,4.72a1,1,0,0,0,1.22.83l5.18-1,1,4.12a1,1,0,0,0,1,.81l.23,0,105.14-24.41,86.47-11.26a1,1,0,0,0,.9-1.17l-.62-4.77,7.91-1.49a1.06,1.06,0,0,0,.84-1.22l-.41-2.15,5.18-1.2A1.05,1.05,0,0,0,632.17,1380.08Z" transform="translate(-128 -1004.31)" style="fill:#325170"/><rect x="388.41" y="1080.31" width="210.87" height="320.82" transform="matrix(0.99, -0.13, 0.13, 0.99, -284.11, -930.13)" style="fill:#e8edf0"/><rect x="388.41" y="1081.36" width="210.87" height="320.82" transform="translate(-395.96 -860.5) rotate(-13.07)" style="fill:#b7c5c9"/><rect x="388.41" y="1079.31" width="210.87" height="320.82" transform="translate(-349.78 -890.94) rotate(-10.71)" style="fill:#fff"/><path d="M449.45,1006a19.39,19.39,0,1,0,22.66,15.45A19.38,19.38,0,0,0,449.45,1006Zm4.79,25.34a6.4,6.4,0,1,1,5.1-7.47A6.4,6.4,0,0,1,454.24,1031.32Z" transform="translate(-128 -1004.31)" style="fill:#00a47c"/><path d="M451,1014.06a11.17,11.17,0,1,0,13,8.9A11.17,11.17,0,0,0,451,1014.06Zm3.26,17.26a6.4,6.4,0,1,1,5.1-7.47A6.4,6.4,0,0,1,454.24,1031.32Z" transform="translate(-128 -1004.31)" style="fill:#008f6d"/><path d="M407.7,1038.89H515.16a13.91,13.91,0,0,1,13.91,13.91v37.82a9.17,9.17,0,0,1-9.17,9.17H403a9.17,9.17,0,0,1-9.17-9.17V1052.8a13.91,13.91,0,0,1,13.91-13.91Z" transform="translate(-318.68 -899.93) rotate(-10.71)" style="fill:#00a47c"/><path d="M511.88,1056.26l-102.19,19.33a15.68,15.68,0,0,1-16.24-7.24,23.28,23.28,0,0,0,.27,7l4,21.16A15.68,15.68,0,0,0,416,1108.92l102.2-19.33a15.68,15.68,0,0,0,12.46-18.27l-4-21.16a23.69,23.69,0,0,0-2.29-6.57A15.68,15.68,0,0,1,511.88,1056.26Z" transform="translate(-128 -1004.31)" style="fill:#008f6d"/><path d="M540.24,1088.82l-145.06,27.43A15.41,15.41,0,0,1,377.23,1104h0a15.4,15.4,0,0,1,12.24-18l145-27.43a15.4,15.4,0,0,1,18,12.24h0A15.42,15.42,0,0,1,540.24,1088.82Z" transform="translate(-128 -1004.31)" style="fill:#00c29b"/><path d="M471.56,1081.08l-67.29,12.72a3.25,3.25,0,0,1-3.79-2.58h0a3.26,3.26,0,0,1,2.59-3.79l67.28-12.72a3.25,3.25,0,0,1,3.79,2.58h0A3.25,3.25,0,0,1,471.56,1081.08Z" transform="translate(-128 -1004.31)" style="fill:#59d9bb"/><path d="M523.61,1071.24l-39.29,7.43a3.26,3.26,0,0,1-3.79-2.59h0a3.25,3.25,0,0,1,2.59-3.79l39.28-7.43a3.25,3.25,0,0,1,3.79,2.59h0A3.26,3.26,0,0,1,523.61,1071.24Z" transform="translate(-128 -1004.31)" style="fill:#59d9bb"/><path d="M467.68,1048.61l-55.47,10.49a3.25,3.25,0,0,1-3.79-2.58h0a3.25,3.25,0,0,1,2.58-3.79l55.48-10.5a3.26,3.26,0,0,1,3.79,2.59h0A3.25,3.25,0,0,1,467.68,1048.61Z" transform="translate(-128 -1004.31)" style="fill:#00c29b"/><path d="M505.56,1041.44l-23.1,4.37a3.25,3.25,0,0,1-3.79-2.58h0a3.25,3.25,0,0,1,2.59-3.79l23.1-4.37a3.24,3.24,0,0,1,3.78,2.58h0A3.24,3.24,0,0,1,505.56,1041.44Z" transform="translate(-128 -1004.31)" style="fill:#00c29b"/><path d="M550.71,1066.11A15.42,15.42,0,0,1,538.38,1079l-145,27.43a15.41,15.41,0,0,1-16.19-7.49,14.92,14.92,0,0,0,.09,5.07h0a15.41,15.41,0,0,0,17.95,12.24l145.06-27.43a15.42,15.42,0,0,0,12.24-18h0A15,15,0,0,0,550.71,1066.11Z" transform="translate(-128 -1004.31)" style="fill:#00a47c"/><path d="M416.23,1152a1.47,1.47,0,0,1,.59,0,1.54,1.54,0,0,1,.63.26l3.85,2.78a13.66,13.66,0,0,1-4.5,5.16,18.64,18.64,0,0,1-7.26,2.82,18.19,18.19,0,0,1-7.39,0,15.81,15.81,0,0,1-6-2.73,16.63,16.63,0,0,1-4.44-5,21,21,0,0,1-2.52-6.88,19.2,19.2,0,0,1,0-7.44,16.85,16.85,0,0,1,7.76-11.14,20.48,20.48,0,0,1,7.16-2.72,18.51,18.51,0,0,1,3.77-.35,18,18,0,0,1,3.43.34,15.79,15.79,0,0,1,3.06.94,14.26,14.26,0,0,1,2.61,1.45l-2,4.19a3.21,3.21,0,0,1-.51.73,1.67,1.67,0,0,1-.95.47,1.92,1.92,0,0,1-.86,0,9,9,0,0,1-.9-.32l-1.06-.42a7,7,0,0,0-1.34-.36,9.74,9.74,0,0,0-1.74-.16,11.29,11.29,0,0,0-2.25.23,10.34,10.34,0,0,0-3.89,1.54,9,9,0,0,0-2.7,2.82,10.52,10.52,0,0,0-1.38,3.9,13.83,13.83,0,0,0,.15,4.77,14.68,14.68,0,0,0,1.63,4.63,10.75,10.75,0,0,0,2.65,3.14,8.6,8.6,0,0,0,3.35,1.61,8.88,8.88,0,0,0,3.74.07,16.56,16.56,0,0,0,2-.49,9,9,0,0,0,1.63-.69,8.54,8.54,0,0,0,1.35-1,9.76,9.76,0,0,0,1.23-1.31,3,3,0,0,1,.55-.52A1.71,1.71,0,0,1,416.23,1152Z" transform="translate(-128 -1004.31)" style="fill:#e23b26"/><path d="M458.49,1153.34l-6.28,1.19a2.94,2.94,0,0,1-1.84-.17,2.58,2.58,0,0,1-1.18-1.08l-3.22-5.7-13.28,2.52-.91,6.48a2.83,2.83,0,0,1-2.31,2.25l-6.33,1.19,6.92-37.49,8.3-1.57Zm-25-9.11,9.54-1.81-5-9-1.14-2c-.43-.77-.88-1.61-1.33-2.51-.07,1-.17,2-.28,2.86s-.24,1.65-.36,2.3Z" transform="translate(-128 -1004.31)" style="fill:#e23b26"/><path d="M467,1138.35l2.44,12.92-8.1,1.53-6.61-34.94,11.37-2.15a24.11,24.11,0,0,1,6.61-.44,12.34,12.34,0,0,1,4.77,1.34,8.34,8.34,0,0,1,3.08,2.83,11,11,0,0,1,1.55,4,11.18,11.18,0,0,1,.15,3.3,10.07,10.07,0,0,1-.82,3,10.61,10.61,0,0,1-1.78,2.7,11.88,11.88,0,0,1-2.69,2.23,8,8,0,0,1,1.71.72,6,6,0,0,1,1.51,1.23l9.73,10.75-7.33,1.39a3.17,3.17,0,0,1-3.22-1l-7.72-9a2.5,2.5,0,0,0-1.08-.79,3.12,3.12,0,0,0-1.51,0Zm-1.06-5.59,3.26-.62a8.61,8.61,0,0,0,2.74-1,5.15,5.15,0,0,0,1.69-1.53,4.52,4.52,0,0,0,.75-1.94,6.62,6.62,0,0,0-.07-2.21,4.58,4.58,0,0,0-2.18-3.31,7,7,0,0,0-4.88-.42l-3.27.62Z" transform="translate(-128 -1004.31)" style="fill:#e23b26"/><path d="M507.36,1138a15,15,0,0,0,2.92-.85,15.69,15.69,0,0,0,2.3-1.23l-1-5.3-3.46.65a1.67,1.67,0,0,1-1.27-.18,1.41,1.41,0,0,1-.63-1l-.84-4.46,12.42-2.35,2.79,14.75a19.82,19.82,0,0,1-2.47,2.22,18.67,18.67,0,0,1-2.88,1.74,22.75,22.75,0,0,1-3.37,1.34,35.14,35.14,0,0,1-3.95,1,18.78,18.78,0,0,1-7.36,0,17.71,17.71,0,0,1-6.35-2.68,17.51,17.51,0,0,1-4.82-5,18.91,18.91,0,0,1-2.7-6.85,19.78,19.78,0,0,1-.06-7.43,16.42,16.42,0,0,1,2.64-6.35,17.1,17.1,0,0,1,5.13-4.79,21.35,21.35,0,0,1,7.39-2.77,22.79,22.79,0,0,1,4.16-.41,20.93,20.93,0,0,1,3.73.31,16.06,16.06,0,0,1,3.24.93,15.81,15.81,0,0,1,2.75,1.42l-1.67,4a2.61,2.61,0,0,1-.66,1,1.91,1.91,0,0,1-1,.48,2.9,2.9,0,0,1-1.58-.2c-.71-.27-1.38-.48-2-.66a12.17,12.17,0,0,0-1.86-.35,12.62,12.62,0,0,0-1.95,0,17,17,0,0,0-2.23.3,10.25,10.25,0,0,0-3.95,1.58,8.86,8.86,0,0,0-2.67,2.85,10.54,10.54,0,0,0-1.32,3.89,14.49,14.49,0,0,0,.17,4.7,15,15,0,0,0,1.7,4.79,10.71,10.71,0,0,0,2.82,3.25,9.21,9.21,0,0,0,3.64,1.66A10.83,10.83,0,0,0,507.36,1138Z" transform="translate(-128 -1004.31)" style="fill:#e23b26"/><path d="M557.34,1116.54a19,19,0,0,1,0,7.29,17,17,0,0,1-7.61,11.23,21.27,21.27,0,0,1-14.86,2.81,17,17,0,0,1-11.23-7.66,20.13,20.13,0,0,1-2.66-14.1,17,17,0,0,1,2.62-6.36,17.4,17.4,0,0,1,5-4.85,19.94,19.94,0,0,1,7.18-2.78,19.65,19.65,0,0,1,7.68,0,16.92,16.92,0,0,1,11.19,7.66A19,19,0,0,1,557.34,1116.54Zm-8.29,1.57a15.45,15.45,0,0,0-1.56-4.54,10,10,0,0,0-2.59-3.15,8.46,8.46,0,0,0-3.5-1.62,10.73,10.73,0,0,0-4.3,0,11.14,11.14,0,0,0-4,1.56,8.56,8.56,0,0,0-2.67,2.79,10.09,10.09,0,0,0-1.27,3.88,15.75,15.75,0,0,0,.21,4.79,15.29,15.29,0,0,0,1.56,4.56,10.07,10.07,0,0,0,2.6,3.15,8.32,8.32,0,0,0,3.5,1.61,12.05,12.05,0,0,0,8.34-1.57,8.31,8.31,0,0,0,2.66-2.78,10.09,10.09,0,0,0,1.27-3.88A15.28,15.28,0,0,0,549.05,1118.11Z" transform="translate(-128 -1004.31)" style="fill:#e23b26"/><line x1="271.83" y1="169.07" x2="428.94" y2="139.35" style="fill:red;stroke:#3e607f;stroke-linecap:round;stroke-linejoin:round;stroke-width:2px"/><path d="M414.86,1189.13l.69-.13a.26.26,0,0,1,.2,0,.36.36,0,0,1,.15.15l6,9.21a4.84,4.84,0,0,1,.42.78,5.81,5.81,0,0,1,.09-.88l2.21-10.76a.37.37,0,0,1,.09-.19.32.32,0,0,1,.19-.1l.68-.13-2.69,13-.78.14Z" transform="translate(-128 -1004.31)" style="fill:#3e607f"/><path d="M430.48,1198l2.77-.52-1.85-9.77a5.77,5.77,0,0,1-.09-.62l-2.21,2.86a.35.35,0,0,1-.19.12.31.31,0,0,1-.24-.06l-.31-.3,2.9-3.73.63-.12,2.17,11.47,2.62-.5.12.62-6.2,1.17Z" transform="translate(-128 -1004.31)" style="fill:#3e607f"/><path d="M438.61,1196.42a.86.86,0,0,1,0-.32.77.77,0,0,1,.12-.28,1.45,1.45,0,0,1,.21-.22,1,1,0,0,1,.3-.12.69.69,0,0,1,.32,0,.7.7,0,0,1,.28.12.77.77,0,0,1,.22.22.81.81,0,0,1,.12.29.91.91,0,0,1,0,.33,1,1,0,0,1-.13.28.84.84,0,0,1-.51.33.79.79,0,0,1-.6-.12A.77.77,0,0,1,438.61,1196.42Z" transform="translate(-128 -1004.31)" style="fill:#3e607f"/><path d="M449.31,1188.84a9.55,9.55,0,0,1,.17,2.8,5.71,5.71,0,0,1-.56,2.09,3.88,3.88,0,0,1-1.16,1.39,4.21,4.21,0,0,1-1.61.69,4,4,0,0,1-1.75-.06,3.73,3.73,0,0,1-1.58-.86,5.82,5.82,0,0,1-1.28-1.74,10.05,10.05,0,0,1-.86-2.68,9.94,9.94,0,0,1-.18-2.8,5.71,5.71,0,0,1,.56-2.09,3.88,3.88,0,0,1,1.16-1.39,3.94,3.94,0,0,1,1.6-.68,3.81,3.81,0,0,1,3.34.92,5.79,5.79,0,0,1,1.29,1.73A10.05,10.05,0,0,1,449.31,1188.84Zm-.85.16a10,10,0,0,0-.76-2.45,5.41,5.41,0,0,0-1.07-1.55,2.94,2.94,0,0,0-2.68-.81,3,3,0,0,0-1.27.55,3.06,3.06,0,0,0-.92,1.18,5.24,5.24,0,0,0-.44,1.84,10.29,10.29,0,0,0,.19,2.55,9.86,9.86,0,0,0,.76,2.45,5.29,5.29,0,0,0,1.08,1.55,2.91,2.91,0,0,0,2.67.81,3.15,3.15,0,0,0,1.27-.56,2.89,2.89,0,0,0,.93-1.17,5.47,5.47,0,0,0,.43-1.83A9.93,9.93,0,0,0,448.46,1189Z" transform="translate(-128 -1004.31)" style="fill:#3e607f"/><path d="M451.84,1193.92a.86.86,0,0,1,0-.32.77.77,0,0,1,.12-.28.87.87,0,0,1,.21-.22.79.79,0,0,1,.3-.12.69.69,0,0,1,.32,0,.7.7,0,0,1,.28.12.92.92,0,0,1,.22.22.74.74,0,0,1,.12.29.68.68,0,0,1,0,.32.65.65,0,0,1-.12.28.77.77,0,0,1-.22.22,1.48,1.48,0,0,1-.29.12.8.8,0,0,1-.93-.64Z" transform="translate(-128 -1004.31)" style="fill:#3e607f"/><path d="M457.25,1181a4.1,4.1,0,0,1,1.35,0,3.15,3.15,0,0,1,1.21.4,2.78,2.78,0,0,1,.95.86,3.46,3.46,0,0,1,.55,1.37,3.63,3.63,0,0,1,0,1.31,5,5,0,0,1-.35,1.22,8.12,8.12,0,0,1-.63,1.2c-.26.4-.52.81-.8,1.22l-3,4.56a3.93,3.93,0,0,1,.55-.21,3.77,3.77,0,0,1,.58-.14l5.2-1a.28.28,0,0,1,.35.24l.09.47-7.77,1.47,0-.29a.46.46,0,0,1,0-.2,1.08,1.08,0,0,1,.08-.19l3.32-4.93c.28-.41.53-.81.76-1.18a8,8,0,0,0,.57-1.13,5,5,0,0,0,.31-1.1,3.37,3.37,0,0,0,0-1.14,2.67,2.67,0,0,0-.44-1.11,2.45,2.45,0,0,0-.74-.7,2.53,2.53,0,0,0-.94-.3,3.64,3.64,0,0,0-1,0,3.12,3.12,0,0,0-1,.38,2.64,2.64,0,0,0-.76.64,2.8,2.8,0,0,0-.48.86,3.32,3.32,0,0,0-.16,1,.34.34,0,0,1-.28.36h-.51a4.31,4.31,0,0,1,.16-1.46,3.5,3.5,0,0,1,1.62-2A4.34,4.34,0,0,1,457.25,1181Z" transform="translate(-128 -1004.31)" style="fill:#3e607f"/><line x1="413.67" y1="367.67" x2="326.21" y2="384.22" style="fill:none;stroke:#6483a0;stroke-linecap:round;stroke-linejoin:round;stroke-width:2px"/><path d="M445.23,1385l-1.54.29L441.55,1374l1.53-.29Z" transform="translate(-128 -1004.31)" style="fill:#6483a0"/><path d="M448,1384.51l-1.51-8,.84-.16a.35.35,0,0,1,.43.22l.28.85a4.45,4.45,0,0,1,1-1.16,2.94,2.94,0,0,1,1.42-.63,2.86,2.86,0,0,1,1.2,0,2.41,2.41,0,0,1,.95.46,2.77,2.77,0,0,1,.7.87,4.2,4.2,0,0,1,.4,1.21l1,5.1-1.41.26-1-5.1a2.23,2.23,0,0,0-.69-1.33,1.57,1.57,0,0,0-1.36-.26,2.38,2.38,0,0,0-1.11.52,4,4,0,0,0-.85,1l1.12,5.9Z" transform="translate(-128 -1004.31)" style="fill:#6483a0"/><path d="M460.16,1375.29a.34.34,0,0,1-.26.23.59.59,0,0,1-.28,0l-.41-.12a2.69,2.69,0,0,0-.56-.1,2.27,2.27,0,0,0-.72,0,2,2,0,0,0-.63.21,1.71,1.71,0,0,0-.44.34,1.22,1.22,0,0,0-.24.43,1.06,1.06,0,0,0,0,.47.73.73,0,0,0,.28.48,1.37,1.37,0,0,0,.54.27,4.46,4.46,0,0,0,.71.14l.81.1c.28,0,.55.09.82.15a2.6,2.6,0,0,1,.74.26,2,2,0,0,1,.58.5,1.78,1.78,0,0,1,.33.79,2.7,2.7,0,0,1,0,1.06,2.33,2.33,0,0,1-.43.93,2.88,2.88,0,0,1-.85.72,4,4,0,0,1-1.26.44,4.16,4.16,0,0,1-1.57,0,3.89,3.89,0,0,1-1.29-.49l.23-.6a.57.57,0,0,1,.12-.18.5.5,0,0,1,.22-.1.53.53,0,0,1,.32,0c.12.06.27.11.43.17a2.92,2.92,0,0,0,.6.15,2.63,2.63,0,0,0,.82,0,2.49,2.49,0,0,0,.7-.25,1.61,1.61,0,0,0,.46-.38,1.33,1.33,0,0,0,.23-.48,1.51,1.51,0,0,0,0-.52.85.85,0,0,0-.28-.52,1.54,1.54,0,0,0-.54-.28,3.82,3.82,0,0,0-.72-.15l-.82-.09a7.85,7.85,0,0,1-.82-.15,2.52,2.52,0,0,1-.74-.28,1.91,1.91,0,0,1-.59-.51,2,2,0,0,1-.34-.84,2.19,2.19,0,0,1,0-.92,2.16,2.16,0,0,1,.41-.85,2.83,2.83,0,0,1,.8-.68,3.81,3.81,0,0,1,1.18-.42,4,4,0,0,1,1.46,0,3.54,3.54,0,0,1,1.22.48Z" transform="translate(-128 -1004.31)" style="fill:#6483a0"/><path d="M464.22,1384.26l-2-10.73.84-.15a.35.35,0,0,1,.43.22l.3.92a4.09,4.09,0,0,1,1-1.22,3,3,0,0,1,1.44-.67,2.88,2.88,0,0,1,1.31,0,2.54,2.54,0,0,1,1.1.6,3.69,3.69,0,0,1,.85,1.17,6.82,6.82,0,0,1,.55,1.72,5.46,5.46,0,0,1,.07,1.7,4,4,0,0,1-.43,1.45,3.18,3.18,0,0,1-.92,1.08,3.31,3.31,0,0,1-1.39.6,3,3,0,0,1-1.31,0,3,3,0,0,1-1.07-.52l.68,3.54Zm1.72-10.4a2.21,2.21,0,0,0-1.14.54,3.55,3.55,0,0,0-.79,1.07l.74,3.88a2.2,2.2,0,0,0,1,.57,2.26,2.26,0,0,0,1.07,0,2,2,0,0,0,1.56-1.12,3.77,3.77,0,0,0,.17-2.39,5.61,5.61,0,0,0-.39-1.32,2.63,2.63,0,0,0-.57-.85,1.63,1.63,0,0,0-.74-.4A2.1,2.1,0,0,0,465.94,1373.86Z" transform="translate(-128 -1004.31)" style="fill:#6483a0"/><path d="M474.07,1371.16a3.51,3.51,0,0,1,1.37,0,3.13,3.13,0,0,1,1.19.49,3.24,3.24,0,0,1,.9,1,4.41,4.41,0,0,1,.54,1.47,1,1,0,0,1,0,.46c0,.08-.12.13-.25.16l-5.33,1A4.56,4.56,0,0,0,473,1377a2.66,2.66,0,0,0,.7.84,2.08,2.08,0,0,0,.89.41,2.76,2.76,0,0,0,1.07,0,3.21,3.21,0,0,0,.89-.29,4.62,4.62,0,0,0,.61-.39c.16-.13.3-.25.41-.36a.7.7,0,0,1,.3-.18.34.34,0,0,1,.29.08l.49.44a2.37,2.37,0,0,1-.52.67,4,4,0,0,1-.7.53,5.62,5.62,0,0,1-.82.39,4.4,4.4,0,0,1-.86.24,4.06,4.06,0,0,1-1.59,0,3.53,3.53,0,0,1-1.36-.59,3.85,3.85,0,0,1-1.05-1.2,5.4,5.4,0,0,1-.63-1.78,4.6,4.6,0,0,1,0-1.61,3.77,3.77,0,0,1,.5-1.4,3.32,3.32,0,0,1,1-1.06A4,4,0,0,1,474.07,1371.16Zm.23,1a2.21,2.21,0,0,0-1.5.89,2.92,2.92,0,0,0-.42,1.77l4.36-.82a3,3,0,0,0-.3-.88,2,2,0,0,0-.53-.62,1.7,1.7,0,0,0-.73-.34A2.17,2.17,0,0,0,474.3,1372.19Z" transform="translate(-128 -1004.31)" style="fill:#6483a0"/><path d="M484.94,1370.7a.49.49,0,0,1-.1.16.25.25,0,0,1-.17.08.49.49,0,0,1-.28,0l-.39-.16a3.39,3.39,0,0,0-.56-.12,2.59,2.59,0,0,0-.76.05,2.5,2.5,0,0,0-1,.4,2.1,2.1,0,0,0-.64.75,2.8,2.8,0,0,0-.28,1,5.26,5.26,0,0,0,.08,1.29,4.54,4.54,0,0,0,.42,1.26,2.81,2.81,0,0,0,.64.87,2.12,2.12,0,0,0,.84.44,2.28,2.28,0,0,0,1,0,2.45,2.45,0,0,0,.82-.28,2.81,2.81,0,0,0,.51-.38c.12-.13.23-.24.31-.34a.44.44,0,0,1,.26-.18.32.32,0,0,1,.29.08l.5.44a3.15,3.15,0,0,1-1.13,1.19,4.7,4.7,0,0,1-1.6.61,3.53,3.53,0,0,1-1.45,0,3.28,3.28,0,0,1-1.27-.59,3.87,3.87,0,0,1-1-1.15,5.85,5.85,0,0,1-.67-3.39,3.82,3.82,0,0,1,.48-1.45,3.28,3.28,0,0,1,1-1.08,4.05,4.05,0,0,1,1.56-.62,4,4,0,0,1,1.54,0,3.62,3.62,0,0,1,1.29.56Z" transform="translate(-128 -1004.31)" style="fill:#6483a0"/><path d="M490.56,1376.6a1.93,1.93,0,0,1-1.55-.26,2.11,2.11,0,0,1-.8-1.43l-.93-4.9-1,.18a.28.28,0,0,1-.22,0,.26.26,0,0,1-.13-.22l-.11-.56,1.28-.42-.14-2.53a.3.3,0,0,1,.06-.22.31.31,0,0,1,.21-.11l.71-.14.52,2.76,2.3-.43.19,1-2.29.43.91,4.81a1,1,0,0,0,.38.71.88.88,0,0,0,.68.12,1.31,1.31,0,0,0,.38-.13,1.8,1.8,0,0,0,.25-.18l.18-.17a.31.31,0,0,1,.13-.09.27.27,0,0,1,.23.1l.54.59a2.52,2.52,0,0,1-.78.7A3,3,0,0,1,490.56,1376.6Z" transform="translate(-128 -1004.31)" style="fill:#6483a0"/><path d="M495.72,1367.06a4.31,4.31,0,0,1,1.64,0,3.43,3.43,0,0,1,1.36.61,3.62,3.62,0,0,1,1,1.15,5.18,5.18,0,0,1,.59,1.66,5.28,5.28,0,0,1,.06,1.76,3.6,3.6,0,0,1-.52,1.44,3.36,3.36,0,0,1-1,1,4.32,4.32,0,0,1-1.53.59,4.12,4.12,0,0,1-1.64,0,3.32,3.32,0,0,1-1.37-.6,3.77,3.77,0,0,1-1-1.15,5.27,5.27,0,0,1-.59-1.65,5,5,0,0,1-.05-1.76,3.7,3.7,0,0,1,.52-1.45,3.42,3.42,0,0,1,1.05-1.06A4.18,4.18,0,0,1,495.72,1367.06Zm1.35,7.15a2.08,2.08,0,0,0,1.62-1.13,3.74,3.74,0,0,0,.17-2.33,3.8,3.8,0,0,0-1-2.12,2.08,2.08,0,0,0-1.92-.46,2.49,2.49,0,0,0-1,.4,2,2,0,0,0-.63.74,2.69,2.69,0,0,0-.26,1,5.56,5.56,0,0,0,.1,1.31,5,5,0,0,0,.38,1.24,2.61,2.61,0,0,0,.62.86,2,2,0,0,0,.86.45A2.44,2.44,0,0,0,497.07,1374.21Z" transform="translate(-128 -1004.31)" style="fill:#6483a0"/><path d="M502.81,1374.15l-1.52-8,.81-.15a.49.49,0,0,1,.33,0,.56.56,0,0,1,.18.28l.33,1.23a3.68,3.68,0,0,1,.77-1.5,2.32,2.32,0,0,1,1.33-.74,2.64,2.64,0,0,1,.61,0,2.36,2.36,0,0,1,.54.12l0,1.09a.24.24,0,0,1-.21.24,1.44,1.44,0,0,1-.35,0,2,2,0,0,0-.66,0,1.87,1.87,0,0,0-1.15.65,3.4,3.4,0,0,0-.59,1.4l1,5.1Z" transform="translate(-128 -1004.31)" style="fill:#6483a0"/><path d="M517.3,1359.67l.24,1.25-5.45,1,.75,4,4.66-.88.23,1.25-4.65.88L514,1372l-1.54.3L510.32,1361Z" transform="translate(-128 -1004.31)" style="fill:#6483a0"/><path d="M522.27,1362a3.51,3.51,0,0,1,1.37,0,2.93,2.93,0,0,1,1.19.5,3.32,3.32,0,0,1,.9,1,4.49,4.49,0,0,1,.54,1.47.88.88,0,0,1,0,.46.28.28,0,0,1-.24.16l-5.34,1a4.56,4.56,0,0,0,.46,1.28,2.8,2.8,0,0,0,.7.84,2.05,2.05,0,0,0,.9.41,2.7,2.7,0,0,0,1.06,0,3.2,3.2,0,0,0,.89-.3,4.62,4.62,0,0,0,.61-.39c.17-.13.3-.25.41-.35a.64.64,0,0,1,.3-.19.31.31,0,0,1,.29.09l.5.44a3,3,0,0,1-.52.66,4.16,4.16,0,0,1-.71.54,4.71,4.71,0,0,1-.82.38,5.27,5.27,0,0,1-.86.25,4.2,4.2,0,0,1-1.58,0,3.23,3.23,0,0,1-1.37-.59,3.81,3.81,0,0,1-1.05-1.19,5.57,5.57,0,0,1-.63-1.78,4.67,4.67,0,0,1,0-1.62,3.9,3.9,0,0,1,.5-1.4,3.55,3.55,0,0,1,1-1.06A4,4,0,0,1,522.27,1362Zm.23,1a2.25,2.25,0,0,0-1.5.89,2.85,2.85,0,0,0-.41,1.77l4.35-.82a2.79,2.79,0,0,0-.3-.87,1.94,1.94,0,0,0-.53-.63,1.71,1.71,0,0,0-.72-.34A2.22,2.22,0,0,0,522.5,1363.07Z" transform="translate(-128 -1004.31)" style="fill:#6483a0"/><path d="M528.93,1369.21l-1.52-8,.81-.15a.49.49,0,0,1,.33,0,.56.56,0,0,1,.18.28l.33,1.23a3.68,3.68,0,0,1,.77-1.5,2.29,2.29,0,0,1,1.33-.74,2.6,2.6,0,0,1,.61,0,2.36,2.36,0,0,1,.54.12l0,1.09a.23.23,0,0,1-.21.24,1.44,1.44,0,0,1-.35,0,2,2,0,0,0-.66,0,1.87,1.87,0,0,0-1.15.65,3.4,3.4,0,0,0-.59,1.4l1,5.1Z" transform="translate(-128 -1004.31)" style="fill:#6483a0"/><path d="M535.3,1368l-1.51-8,.8-.15a.45.45,0,0,1,.34,0,.56.56,0,0,1,.17.28l.33,1.23a3.8,3.8,0,0,1,.77-1.5,2.3,2.3,0,0,1,1.33-.74,2.25,2.25,0,0,1,.62,0,1.92,1.92,0,0,1,.54.11v1.09a.23.23,0,0,1-.2.24,1.12,1.12,0,0,1-.36,0,2.28,2.28,0,0,0-.65,0,1.81,1.81,0,0,0-1.15.66,3.11,3.11,0,0,0-.59,1.4l1,5.1Z" transform="translate(-128 -1004.31)" style="fill:#6483a0"/><path d="M541.57,1355.92a.9.9,0,0,1,0,.4,1.23,1.23,0,0,1-.16.35,1.07,1.07,0,0,1-.28.28.85.85,0,0,1-.37.15.9.9,0,0,1-.4,0,1.17,1.17,0,0,1-.36-.16,1,1,0,0,1-.43-.64.94.94,0,0,1,0-.41,1,1,0,0,1,.15-.37,1,1,0,0,1,.28-.27,1,1,0,0,1,.37-.16,1.08,1.08,0,0,1,.4,0,1,1,0,0,1,.36.16,1.07,1.07,0,0,1,.28.28A1,1,0,0,1,541.57,1355.92Zm.16,2.57,1.51,8-1.4.27-1.52-8Z" transform="translate(-128 -1004.31)" style="fill:#6483a0"/><path d="M549.05,1358.47a.31.31,0,0,1-.26.23.47.47,0,0,1-.28,0l-.41-.13a5.53,5.53,0,0,0-.55-.1,2.69,2.69,0,0,0-.73,0,2,2,0,0,0-.63.21,1.71,1.71,0,0,0-.44.34,1.22,1.22,0,0,0-.24.43,1.06,1.06,0,0,0,0,.47.73.73,0,0,0,.28.48,1.37,1.37,0,0,0,.54.27,4.46,4.46,0,0,0,.71.14l.81.1.82.14a3,3,0,0,1,.74.27,1.84,1.84,0,0,1,.58.5,1.78,1.78,0,0,1,.33.79,2.7,2.7,0,0,1,0,1.06,2.33,2.33,0,0,1-.43.93,3.21,3.21,0,0,1-.85.72,4.43,4.43,0,0,1-2.83.45,3.68,3.68,0,0,1-1.29-.48l.23-.6a.47.47,0,0,1,.12-.18.5.5,0,0,1,.22-.1.58.58,0,0,1,.33,0l.42.17a2.92,2.92,0,0,0,.6.15,2.63,2.63,0,0,0,.82,0,2.49,2.49,0,0,0,.7-.25,1.61,1.61,0,0,0,.46-.38,1.33,1.33,0,0,0,.23-.48,1.57,1.57,0,0,0,0-.53.85.85,0,0,0-.28-.51,1.39,1.39,0,0,0-.54-.28,3.82,3.82,0,0,0-.72-.15l-.82-.09c-.27,0-.55-.09-.82-.15a2.52,2.52,0,0,1-.74-.28,1.93,1.93,0,0,1-.59-.51,2,2,0,0,1-.34-.84,2.19,2.19,0,0,1,0-.92,2.16,2.16,0,0,1,.41-.85,2.83,2.83,0,0,1,.8-.68,3.81,3.81,0,0,1,1.18-.42,4,4,0,0,1,1.46,0,3.54,3.54,0,0,1,1.22.48Z" transform="translate(-128 -1004.31)" style="fill:#6483a0"/><path d="M594.19,1348.5h-.07c-.25,0-.25,0-.22-.24.05-.46.1-.92.14-1.38a.51.51,0,0,0-.72-.58l-1.41.48a.3.3,0,0,1-.26,0,.5.5,0,0,1-.28-.47c0-.47-.08-.93-.11-1.39a.53.53,0,0,0-.85-.44c-.42.27-.86.5-1.28.75a.44.44,0,0,1-.54-.22c-.15-.53-.3-1.06-.46-1.59a.51.51,0,0,0-.85-.24l-1.13,1a.43.43,0,0,1-.59-.12c-.24-.49-.48-1-.73-1.46a.5.5,0,0,0-.88-.06l-.89,1.23a.43.43,0,0,1-.61,0c-.31-.42-.63-.82-.94-1.24a.52.52,0,0,0-.94.11c-.18.45-.4.88-.6,1.31a.41.41,0,0,1-.63.14l-1.14-1a.49.49,0,0,0-.87.27l-.36,1.51a.42.42,0,0,1-.52.22l-1.36-.81a.52.52,0,0,0-.52,0,.54.54,0,0,0-.25.46l-.06,1.59a.43.43,0,0,1-.47.32l-1.46-.53a.5.5,0,0,0-.7.59c.07.5.15,1,.23,1.51a.4.4,0,0,1-.46.45c-.47-.06-.95-.12-1.42-.21a.52.52,0,0,0-.6.73c.18.48.35,1,.52,1.46a.43.43,0,0,1-.33.51l-1.52.08a.49.49,0,0,0-.42.77c.27.48.55.94.82,1.41a.43.43,0,0,1-.21.56l-1.49.39a.5.5,0,0,0-.26.84l1.09,1.25a.45.45,0,0,1-.11.57c-.44.23-.88.47-1.33.67a.53.53,0,0,0-.09,1c.37.28.72.58,1.1.85a.52.52,0,0,1,.25.49.29.29,0,0,1-.13.24l-1.16.92a.51.51,0,0,0,.09.92l1.24.63c.24.12.24.12.08.32l0,.06a2.36,2.36,0,0,0-.55,1.56c.5.51,2.59.26,3.6.09s1.79-.24,2.67-.42a37.68,37.68,0,0,0,4.21-1.09c.59-.19,1.18-.38,1.77-.6s1.11-.42,1.65-.67,2-1,2.63-1.27h0c.56-.34,1.95-1.15,2.5-1.51s1-.68,1.46-1,1-.76,1.46-1.15a37.16,37.16,0,0,0,3.2-2.94c.64-.64,1.21-1.34,1.82-2s2-2.37,1.88-3.07A2.38,2.38,0,0,0,594.19,1348.5Zm-14.73,7.84a2.49,2.49,0,0,1,0,1.64,1.45,1.45,0,0,1-.73.91,3.05,3.05,0,0,1-1.6.29,1.67,1.67,0,0,1-1.41-.89,4.6,4.6,0,0,1-.53-1.67,1.77,1.77,0,0,1,.26-1.21,1.71,1.71,0,0,1,1.48-.86,1,1,0,0,1,.54,0,.22.22,0,0,1,.16,0,1.56,1.56,0,0,1,.76.4A2.89,2.89,0,0,1,579.46,1356.34Zm6.38-1.9a2.12,2.12,0,0,1-1.33,1.39,2,2,0,0,1-2.06-.41,3.09,3.09,0,0,1-1-2.26,1.89,1.89,0,0,1,.61-1.49,3,3,0,0,1,1.37-.67s0,0,0,0a.94.94,0,0,1,.41,0,1.75,1.75,0,0,1,.7.43.09.09,0,0,1,.06.06h0c.06,0,.09,0,.12,0a3.69,3.69,0,0,1,.62.56A2.11,2.11,0,0,1,585.84,1354.44Z" transform="translate(-128 -1004.31)" style="fill:#e23b26"/><polygon points="446.56 339.89 446.57 339.89 446.58 339.88 446.56 339.89" style="fill:#e23b26"/><path d="M579.5,1334.3a19.5,19.5,0,1,1-19.5,19.5,19.5,19.5,0,0,1,19.5-19.5m0-3a22.5,22.5,0,1,0,22.5,22.5,22.52,22.52,0,0,0-22.5-22.5Z" transform="translate(-128 -1004.31)" style="fill:#e23b26"/><circle cx="401.02" cy="1220.54" r="8.59" transform="translate(-431.23 -858.28) rotate(-15.05)" style="fill:#e8edf0"/><path d="M473.8,1208.52l-57.23,10.82a1.72,1.72,0,0,1-2-1.36h0a1.72,1.72,0,0,1,1.37-2l57.23-10.83a1.73,1.73,0,0,1,2,1.37h0A1.73,1.73,0,0,1,473.8,1208.52Z" transform="translate(-128 -1004.31)" style="fill:#e8edf0"/><path d="M477.45,1200.83l-64.95,12.28a1.7,1.7,0,0,1-2-1.36h0a1.71,1.71,0,0,1,1.36-2l65-12.28a1.71,1.71,0,0,1,2,1.36h0A1.73,1.73,0,0,1,477.45,1200.83Z" transform="translate(-128 -1004.31)" style="fill:#e8edf0"/><path d="M469.85,1216.27l-54.8,10.36a1.73,1.73,0,0,1-2-1.36h0a1.72,1.72,0,0,1,1.37-2l54.79-10.37a1.73,1.73,0,0,1,2,1.37h0A1.73,1.73,0,0,1,469.85,1216.27Z" transform="translate(-128 -1004.31)" style="fill:#e8edf0"/><circle cx="406.09" cy="1247.38" r="8.59" transform="translate(-437.89 -856.13) rotate(-15.05)" style="fill:#e8edf0"/><path d="M478.88,1235.35l-57.23,10.83a1.72,1.72,0,0,1-2-1.37h0a1.72,1.72,0,0,1,1.36-2L478.24,1232a1.72,1.72,0,0,1,2,1.36h0A1.71,1.71,0,0,1,478.88,1235.35Z" transform="translate(-128 -1004.31)" style="fill:#e8edf0"/><path d="M482.53,1227.66l-65,12.29a1.73,1.73,0,0,1-2-1.36h0a1.72,1.72,0,0,1,1.37-2l64.95-12.29a1.72,1.72,0,0,1,2,1.36h0A1.71,1.71,0,0,1,482.53,1227.66Z" transform="translate(-128 -1004.31)" style="fill:#e8edf0"/><path d="M474.92,1243.1l-54.79,10.37a1.72,1.72,0,0,1-2-1.37h0a1.72,1.72,0,0,1,1.36-2l54.79-10.36a1.71,1.71,0,0,1,2,1.36h0A1.7,1.7,0,0,1,474.92,1243.1Z" transform="translate(-128 -1004.31)" style="fill:#e8edf0"/><circle cx="411.17" cy="1274.21" r="8.59" transform="translate(-338.92 -915.71) rotate(-9.8)" style="fill:#e8edf0"/><path d="M484,1262.19,426.72,1273a1.72,1.72,0,0,1-2-1.36h0a1.72,1.72,0,0,1,1.37-2l57.23-10.82a1.71,1.71,0,0,1,2,1.36h0A1.73,1.73,0,0,1,484,1262.19Z" transform="translate(-128 -1004.31)" style="fill:#e8edf0"/><path d="M487.6,1254.5l-65,12.29a1.72,1.72,0,0,1-2-1.37h0a1.72,1.72,0,0,1,1.36-2l65-12.28a1.71,1.71,0,0,1,2,1.36h0A1.72,1.72,0,0,1,487.6,1254.5Z" transform="translate(-128 -1004.31)" style="fill:#e8edf0"/><circle cx="416.91" cy="1298.61" r="8.59" transform="translate(-334.29 -918.89) rotate(-9.39)" style="fill:#e8edf0"/><path d="M481.15,1288.2l-48.69,9.21a1.72,1.72,0,0,1-2-1.36h0a1.72,1.72,0,0,1,1.37-2l48.69-9.21a1.73,1.73,0,0,1,2,1.36h0A1.72,1.72,0,0,1,481.15,1288.2Z" transform="translate(-128 -1004.31)" style="fill:#e8edf0"/><path d="M484.8,1280.51l-56.41,10.67a1.7,1.7,0,0,1-2-1.36h0a1.71,1.71,0,0,1,1.36-2l56.42-10.67a1.73,1.73,0,0,1,2,1.36h0A1.72,1.72,0,0,1,484.8,1280.51Z" transform="translate(-128 -1004.31)" style="fill:#e8edf0"/><path d="M400.46,1226.26a1.19,1.19,0,0,1-.63-.19l-5.25-3.6a1.11,1.11,0,0,1,1.25-1.83l4.25,2.91,3.92-7a1.1,1.1,0,0,1,1.51-.43,1.12,1.12,0,0,1,.43,1.51l-4.51,8.07a1.1,1.1,0,0,1-.72.54A1,1,0,0,1,400.46,1226.26Z" transform="translate(-128 -1004.31)" style="fill:#00a47c"/><circle cx="422.02" cy="1323.54" r="8.59" transform="translate(-457.26 -849.29) rotate(-15.05)" style="fill:#e8edf0"/><path d="M494.8,1311.52l-57.23,10.82a1.72,1.72,0,0,1-2-1.36h0a1.72,1.72,0,0,1,1.37-2l57.23-10.83a1.73,1.73,0,0,1,2,1.37h0A1.73,1.73,0,0,1,494.8,1311.52Z" transform="translate(-128 -1004.31)" style="fill:#e8edf0"/><path d="M498.45,1303.83l-64.95,12.28a1.7,1.7,0,0,1-2-1.36h0a1.71,1.71,0,0,1,1.36-2l65-12.28a1.71,1.71,0,0,1,2,1.36h0A1.73,1.73,0,0,1,498.45,1303.83Z" transform="translate(-128 -1004.31)" style="fill:#e8edf0"/><path d="M490.85,1319.27l-54.8,10.36a1.73,1.73,0,0,1-2-1.36h0a1.72,1.72,0,0,1,1.37-2l54.79-10.37a1.73,1.73,0,0,1,2,1.37h0A1.73,1.73,0,0,1,490.85,1319.27Z" transform="translate(-128 -1004.31)" style="fill:#e8edf0"/><path d="M421.46,1329.26a1.19,1.19,0,0,1-.63-.19l-5.25-3.6a1.11,1.11,0,0,1,1.25-1.83l4.25,2.91,3.92-7a1.1,1.1,0,0,1,1.51-.43,1.12,1.12,0,0,1,.43,1.51l-4.51,8.07a1.1,1.1,0,0,1-.72.54A1,1,0,0,1,421.46,1329.26Z" transform="translate(-128 -1004.31)" style="fill:#00a47c"/><path d="M406.27,1252.52a1.06,1.06,0,0,1-.62-.19l-5.26-3.59a1.12,1.12,0,0,1-.29-1.54,1.1,1.1,0,0,1,1.54-.29l4.25,2.9,3.92-7a1.1,1.1,0,0,1,1.51-.43,1.12,1.12,0,0,1,.43,1.51l-4.51,8.08a1.09,1.09,0,0,1-.71.53A1.15,1.15,0,0,1,406.27,1252.52Z" transform="translate(-128 -1004.31)" style="fill:#00a47c"/><path d="M411.27,1279.52a1.06,1.06,0,0,1-.62-.19l-5.26-3.59a1.12,1.12,0,0,1-.29-1.54,1.1,1.1,0,0,1,1.54-.29l4.25,2.9,3.92-7a1.1,1.1,0,0,1,1.51-.43,1.12,1.12,0,0,1,.43,1.51l-4.51,8.08a1.09,1.09,0,0,1-.71.53A1.15,1.15,0,0,1,411.27,1279.52Z" transform="translate(-128 -1004.31)" style="fill:#00a47c"/><path d="M417.28,1303.76a1.19,1.19,0,0,1-.63-.19l-5.25-3.6a1.11,1.11,0,0,1,1.25-1.83l4.25,2.91,3.92-7a1.11,1.11,0,0,1,1.94,1.09l-4.51,8.07a1.1,1.1,0,0,1-.72.54A1,1,0,0,1,417.28,1303.76Z" transform="translate(-128 -1004.31)" style="fill:#00a47c"/><circle cx="501.02" cy="1198.54" r="8.59" transform="translate(-422.08 -833.06) rotate(-15.05)" style="fill:#e8edf0"/><path d="M573.8,1186.52l-57.23,10.82a1.72,1.72,0,0,1-2-1.36h0a1.72,1.72,0,0,1,1.37-2l57.23-10.83a1.73,1.73,0,0,1,2,1.37h0A1.73,1.73,0,0,1,573.8,1186.52Z" transform="translate(-128 -1004.31)" style="fill:#e8edf0"/><path d="M577.45,1178.83l-65,12.28a1.7,1.7,0,0,1-2-1.36h0a1.71,1.71,0,0,1,1.36-2l65-12.28a1.71,1.71,0,0,1,2,1.36h0A1.73,1.73,0,0,1,577.45,1178.83Z" transform="translate(-128 -1004.31)" style="fill:#e8edf0"/><path d="M569.85,1194.27l-54.8,10.36a1.73,1.73,0,0,1-2-1.36h0a1.72,1.72,0,0,1,1.37-2l54.79-10.37a1.73,1.73,0,0,1,2,1.37h0A1.73,1.73,0,0,1,569.85,1194.27Z" transform="translate(-128 -1004.31)" style="fill:#e8edf0"/><circle cx="506.09" cy="1225.38" r="8.59" transform="translate(-428.75 -830.92) rotate(-15.05)" style="fill:#e8edf0"/><path d="M578.88,1213.35l-57.23,10.83a1.72,1.72,0,0,1-2-1.37h0a1.72,1.72,0,0,1,1.36-2L578.24,1210a1.72,1.72,0,0,1,2,1.36h0A1.71,1.71,0,0,1,578.88,1213.35Z" transform="translate(-128 -1004.31)" style="fill:#e8edf0"/><path d="M582.53,1205.66l-65,12.29a1.73,1.73,0,0,1-2-1.36h0a1.72,1.72,0,0,1,1.37-2l64.95-12.29a1.72,1.72,0,0,1,2,1.36h0A1.71,1.71,0,0,1,582.53,1205.66Z" transform="translate(-128 -1004.31)" style="fill:#e8edf0"/><path d="M574.92,1221.1l-54.79,10.37a1.72,1.72,0,0,1-2-1.37h0a1.72,1.72,0,0,1,1.36-2l54.79-10.36a1.71,1.71,0,0,1,2,1.36h0A1.7,1.7,0,0,1,574.92,1221.1Z" transform="translate(-128 -1004.31)" style="fill:#e8edf0"/><circle cx="511.17" cy="1252.21" r="8.59" transform="translate(-333.71 -899.01) rotate(-9.8)" style="fill:#e8edf0"/><path d="M584,1240.19,526.72,1251a1.72,1.72,0,0,1-2-1.36h0a1.72,1.72,0,0,1,1.37-2l57.23-10.82a1.71,1.71,0,0,1,2,1.36h0A1.73,1.73,0,0,1,584,1240.19Z" transform="translate(-128 -1004.31)" style="fill:#e8edf0"/><path d="M587.6,1232.5l-65,12.29a1.72,1.72,0,0,1-2-1.37h0a1.72,1.72,0,0,1,1.36-2l65-12.28a1.71,1.71,0,0,1,2,1.36h0A1.72,1.72,0,0,1,587.6,1232.5Z" transform="translate(-128 -1004.31)" style="fill:#e8edf0"/><circle cx="516.91" cy="1276.61" r="8.59" transform="translate(-329.36 -902.87) rotate(-9.39)" style="fill:#e8edf0"/><path d="M581.15,1266.2l-48.69,9.21a1.72,1.72,0,0,1-2-1.36h0a1.72,1.72,0,0,1,1.37-2l48.69-9.21a1.73,1.73,0,0,1,2,1.36h0A1.72,1.72,0,0,1,581.15,1266.2Z" transform="translate(-128 -1004.31)" style="fill:#e8edf0"/><path d="M584.8,1258.51l-56.41,10.67a1.7,1.7,0,0,1-2-1.36h0a1.71,1.71,0,0,1,1.36-2l56.42-10.67a1.73,1.73,0,0,1,2,1.36h0A1.72,1.72,0,0,1,584.8,1258.51Z" transform="translate(-128 -1004.31)" style="fill:#e8edf0"/><path d="M500.46,1204.26a1.19,1.19,0,0,1-.63-.19l-5.25-3.6a1.11,1.11,0,0,1,1.25-1.83l4.25,2.91,3.92-7a1.1,1.1,0,0,1,1.51-.43,1.12,1.12,0,0,1,.43,1.51l-4.51,8.07a1.1,1.1,0,0,1-.72.54A1,1,0,0,1,500.46,1204.26Z" transform="translate(-128 -1004.31)" style="fill:#00a47c"/><circle cx="522.02" cy="1301.54" r="8.59" transform="translate(-448.11 -824.07) rotate(-15.05)" style="fill:#e8edf0"/><path d="M594.8,1289.52l-57.23,10.82a1.72,1.72,0,0,1-2-1.36h0a1.72,1.72,0,0,1,1.37-2l57.23-10.83a1.73,1.73,0,0,1,2,1.37h0A1.73,1.73,0,0,1,594.8,1289.52Z" transform="translate(-128 -1004.31)" style="fill:#e8edf0"/><path d="M598.45,1281.83l-65,12.28a1.7,1.7,0,0,1-2-1.36h0a1.71,1.71,0,0,1,1.36-2l65-12.28a1.71,1.71,0,0,1,2,1.36h0A1.73,1.73,0,0,1,598.45,1281.83Z" transform="translate(-128 -1004.31)" style="fill:#e8edf0"/><path d="M590.85,1297.27l-54.8,10.36a1.73,1.73,0,0,1-2-1.36h0a1.72,1.72,0,0,1,1.37-2l54.79-10.37a1.73,1.73,0,0,1,2,1.37h0A1.73,1.73,0,0,1,590.85,1297.27Z" transform="translate(-128 -1004.31)" style="fill:#e8edf0"/><path d="M521.46,1307.26a1.19,1.19,0,0,1-.63-.19l-5.25-3.6a1.11,1.11,0,1,1,1.25-1.83l4.25,2.91,3.92-7a1.1,1.1,0,0,1,1.51-.43,1.12,1.12,0,0,1,.43,1.51l-4.51,8.07a1.1,1.1,0,0,1-.72.54A1,1,0,0,1,521.46,1307.26Z" transform="translate(-128 -1004.31)" style="fill:#00a47c"/><path d="M506.27,1230.52a1.06,1.06,0,0,1-.62-.19l-5.26-3.59a1.12,1.12,0,0,1-.29-1.54,1.1,1.1,0,0,1,1.54-.29l4.25,2.9,3.92-7a1.1,1.1,0,0,1,1.51-.43,1.12,1.12,0,0,1,.43,1.51l-4.51,8.08a1.09,1.09,0,0,1-.71.53A1.15,1.15,0,0,1,506.27,1230.52Z" transform="translate(-128 -1004.31)" style="fill:#00a47c"/><path d="M516,1253.83l-3.16-1.9,1.88-3.24a1.11,1.11,0,0,0-.4-1.52,1.1,1.1,0,0,0-1.51.4l-1.87,3.22-3.26-2a1.11,1.11,0,1,0-1.14,1.9l3.28,2-1.85,3.18a1.12,1.12,0,0,0,.41,1.52,1.08,1.08,0,0,0,.55.15,1.1,1.1,0,0,0,1-.56l1.83-3.15,3.14,1.88a1.07,1.07,0,0,0,.57.16,1.11,1.11,0,0,0,.57-2.06Z" transform="translate(-128 -1004.31)" style="fill:#e23b26"/><path d="M522,1278.83l-3.16-1.9,1.88-3.24a1.11,1.11,0,0,0-.4-1.52,1.1,1.1,0,0,0-1.51.4l-1.87,3.22-3.26-2a1.11,1.11,0,0,0-1.14,1.9l3.28,2-1.85,3.18a1.12,1.12,0,0,0,.41,1.52,1.08,1.08,0,0,0,.55.15,1.1,1.1,0,0,0,1-.56l1.83-3.15,3.14,1.88a1.07,1.07,0,0,0,.57.16,1.11,1.11,0,0,0,.57-2.06Z" transform="translate(-128 -1004.31)" style="fill:#e23b26"/><line x1="352.2" y1="171.94" x2="381.91" y2="329.05" style="fill:red;stroke:#3e607f;stroke-linecap:round;stroke-linejoin:round;stroke-width:2px;opacity:0.6000000000000001"/></g></g></svg>